HIERARCHY
ROOT Hips
{
	OFFSET 0.00000 0.00000 0.00000
	CHANNELS 6 Xposition Yposition Zposition Zrotation Yrotation Xrotation 
	JOINT LHipJoint
	{
		OFFSET 0 0 0
		CHANNELS 3 Zrotation Yrotation Xrotation
		JOINT LeftUpLeg
		{
			OFFSET 1.09156 -1.61406 0.76500
			CHANNELS 3 Zrotation Yrotation Xrotation
			JOINT LeftLeg
			{
				OFFSET 2.33750 -6.42225 0.00000
				CHANNELS 3 Zrotation Yrotation Xrotation
				JOINT LeftFoot
				{
					OFFSET 2.49247 -6.84800 0.00000
					CHANNELS 3 Zrotation Yrotation Xrotation
					JOINT LeftToeBase
					{
						OFFSET 0.15312 -0.42069 1.45461
						CHANNELS 3 Zrotation Yrotation Xrotation
						End Site
						{
							OFFSET 0.00000 -0.00000 0.77046
						}
					}
				}
			}
		}
	}
	JOINT RHipJoint
	{
		OFFSET 0 0 0
		CHANNELS 3 Zrotation Yrotation Xrotation
		JOINT RightUpLeg
		{
			OFFSET -0.99883 -1.61406 0.76500
			CHANNELS 3 Zrotation Yrotation Xrotation
			JOINT RightLeg
			{
				OFFSET -2.36877 -6.50815 0.00000
				CHANNELS 3 Zrotation Yrotation Xrotation
				JOINT RightFoot
				{
					OFFSET -2.53452 -6.96353 0.00000
					CHANNELS 3 Zrotation Yrotation Xrotation
					JOINT RightToeBase
					{
						OFFSET -0.13156 -0.36145 1.63237
						CHANNELS 3 Zrotation Yrotation Xrotation
						End Site
						{
							OFFSET -0.00000 -0.00000 0.84979
						}
					}
				}
			}
		}
	}
	JOINT LowerBack
	{
		OFFSET 0 0 0
		CHANNELS 3 Zrotation Yrotation Xrotation
		JOINT Spine
		{
			OFFSET -0.02431 1.98242 -0.13616
			CHANNELS 3 Zrotation Yrotation Xrotation
			JOINT Spine1
			{
				OFFSET 0.03629 1.98974 -0.02954
				CHANNELS 3 Zrotation Yrotation Xrotation
				JOINT Neck
				{
					OFFSET 0 0 0
					CHANNELS 3 Zrotation Yrotation Xrotation
					JOINT Neck1
					{
						OFFSET 0.09349 1.40783 0.22333
						CHANNELS 3 Zrotation Yrotation Xrotation
						JOINT Head
						{
							OFFSET -0.04273 1.44500 -0.06495
							CHANNELS 3 Zrotation Yrotation Xrotation
							End Site
							{
								OFFSET -0.02251 1.44600 -0.04544
							}
						}
					}
				}
				JOINT LeftShoulder
				{
					OFFSET 0 0 0
					CHANNELS 3 Zrotation Yrotation Xrotation
					JOINT LeftArm
					{
						OFFSET 3.49137 0.85126 -0.29740
						CHANNELS 3 Zrotation Yrotation Xrotation
						JOINT LeftForeArm
						{
							OFFSET 5.06035 -0.00000 0.00000
							CHANNELS 3 Zrotation Yrotation Xrotation
							JOINT LeftHand
							{
								OFFSET 3.14780 -0.00000 0.00000
								CHANNELS 3 Zrotation Yrotation Xrotation
								JOINT LeftFingerBase
								{
									OFFSET 0 0 0
									CHANNELS 3 Zrotation Yrotation Xrotation
									JOINT LeftHandIndex1
									{
										OFFSET 0.60675 -0.00000 0.00000
										CHANNELS 3 Zrotation Yrotation Xrotation
										End Site
										{
											OFFSET 0.48918 -0.00000 0.00000
										}
									}
								}
								JOINT LThumb
								{
									OFFSET 0 0 0
									CHANNELS 3 Zrotation Yrotation Xrotation
									End Site
									{
										OFFSET 0.49664 -0.00000 0.49664
									}
								}
							}
						}
					}
				}
				JOINT RightShoulder
				{
					OFFSET 0 0 0
					CHANNELS 3 Zrotation Yrotation Xrotation
					JOINT RightArm
					{
						OFFSET -3.28101 0.69707 0.00747
						CHANNELS 3 Zrotation Yrotation Xrotation
						JOINT RightForeArm
						{
							OFFSET -5.12273 -0.00000 -0.00000
							CHANNELS 3 Zrotation Yrotation Xrotation
							JOINT RightHand
							{
								OFFSET -3.42200 -0.00000 0.00000
								CHANNELS 3 Zrotation Yrotation Xrotation
								JOINT RightFingerBase
								{
									OFFSET 0 0 0
									CHANNELS 3 Zrotation Yrotation Xrotation
									JOINT RightHandIndex1
									{
										OFFSET -0.70460 -0.00000 0.00000
										CHANNELS 3 Zrotation Yrotation Xrotation
										End Site
										{
											OFFSET -0.56807 -0.00000 0.00000
										}
									}
								}
								JOINT RThumb
								{
									OFFSET 0 0 0
									CHANNELS 3 Zrotation Yrotation Xrotation
									End Site
									{
										OFFSET -0.57674 -0.00000 0.57674
									}
								}
							}
						}
					}
				}
			}
		}
	}
}
MOTION
Frames: 16
Frame Time: 0.0833333
0.00 0.00 0.00 0 0 0 0 0 0 -21 0 0 0 0 0 0 0 0 0 0 0 0 0 0 21 0 0 0 0 0 0 0 0 0 0 0 0 0 0 0 0 0 0 0 0 0 0 -16 0 0 21 0 0 11 0 0 0 -8 0 0 0 0 0 0 0 0 0 0 0 0 0 0 0 0 0 0 0 0 8 0 0 0 0 0 0 0 0 0 0 0 0 0 0 0 0 0
0.00 0.00 0.00 182.1300 85.7084 156.3330 0.0000 0.0000 0.0000 -15.5328 -5.2051 -100.2679 14.7710 19.3314 74.5459 2.6549 15.7397 29.7716 4.0384 12.2113 36.4837 0.0000 0.0000 0.0000 10.3092 4.6944 -105.8820 -21.6421 -19.9352 94.8062 -0.0437 9.4166 14.1500 -0.0047 0.4441 -1.2204 -7.3016 -0.3128 43.5178 1.9652 -0.8877 13.9554 6.0925 0.2121 -4.5758 -0.8324 -1.6848 -12.8799 -1.0696 -1.6389 -12.4678 -0.2412 -0.5140 -1.8046 -0.0000 -0.0000 0.0000 -18.2406 -66.8743 51.4608 32.2470 -42.7432 -12.9081 -0.0000 0.0000 -23.8773 -5.7541 46.6885 -4.1935 -7.1250 0.0000 -0.0000 -61.5782 66.7822 -37.8136 -0.0000 -0.0000 0.0000 45.7228 50.7922 42.3620 -26.3645 37.5663 -9.1090 0.0000 0.0000 2.1115 -31.2343 37.0012 -20.0508 7.1250 -0.0000 -0.0000 1.4638 11.3991 1.7248
0.00 0.00 0.00 174.0260 86.5075 147.6410 0.0000 0.0000 0.0000 -14.7924 -4.0840 -100.8609 15.5734 19.5236 76.9581 2.3628 15.8236 28.1918 4.3573 12.6212 37.9666 0.0000 0.0000 0.0000 11.0024 5.0477 -106.2275 -22.2129 -19.8822 96.4823 0.0295 9.6152 13.1839 -0.0240 1.0000 -2.7487 -9.2235 -1.6162 41.9337 1.0936 -3.1531 14.9730 6.9611 -1.0506 -2.5665 -2.9385 -2.7693 -11.0985 1.8716 -2.6217 -16.1284 1.0814 -0.8890 -3.2822 -0.0000 0.0000 0.0000 -12.8980 -59.9663 46.8756 32.1365 -42.6558 -12.8332 -0.0000 0.0000 -25.2824 -3.3883 46.3320 -2.4523 -7.1250 0.0000 -0.0000 -58.9647 67.3410 -36.4257 -0.0000 0.0000 0.0000 75.9416 7.6439 22.2811 -33.0813 43.3924 -13.4779 0.0000 0.0000 23.3197 -62.5841 46.4682 -54.4178 7.1250 -0.0000 -0.0000 -9.3508 35.7977 -13.1414
0.00 0.00 0.00 120.5220 88.4556 91.2741 0.0000 0.0000 0.0000 -12.9239 -1.6248 -98.2897 15.7433 19.5599 77.4661 1.9295 17.2620 26.0305 4.7174 13.0583 39.5872 0.0000 0.0000 0.0000 15.2164 5.6472 -102.7930 -21.8036 -19.9218 95.2799 0.6189 14.0300 8.0651 -0.5552 4.7729 -13.2621 -7.0402 -0.8813 39.4717 -0.6525 -1.1051 16.7537 3.2797 0.1228 -0.2926 10.1658 10.4044 -6.6163 -7.4755 13.3435 -9.6188 -3.8587 6.6292 -0.7197 0.0000 0.0000 0.0000 -8.6593 -63.6839 44.1080 28.3741 -39.4583 -10.3606 -0.0000 0.0000 -28.4303 -8.3302 46.1555 -6.0283 -7.1250 0.0000 -0.0000 -62.6012 65.7119 -37.2787 0.0000 0.0000 0.0000 71.8669 19.1535 21.7339 -76.3518 59.2843 -48.2087 0.0000 -0.0000 -8.4310 -69.6215 50.1428 -64.1773 7.1250 -0.0000 -0.0000 -9.6987 43.1969 -13.7812
0.00 0.00 0.00 123.1950 88.6765 93.7696 0.0000 0.0000 0.0000 -12.6752 -1.6816 -98.1247 15.7528 19.5619 77.4944 1.9496 17.2172 26.1361 4.7212 13.0628 39.6039 0.0000 0.0000 0.0000 14.7039 6.4095 -102.3802 -21.6031 -19.9383 94.6919 0.6107 14.1635 9.1718 -0.5614 4.7990 -13.3363 -6.2491 -0.9607 39.9418 -0.6473 -0.8605 17.0057 2.7994 0.3228 -0.2115 11.3474 10.8045 -6.7878 -9.0020 13.7185 -10.1428 -4.1395 6.8187 -0.5557 -0.0000 -0.0000 0.0000 -7.2286 -64.4066 42.7386 28.4522 -39.5293 -10.4103 -0.0000 0.0000 -29.5473 -9.1917 46.1974 -6.6612 -7.1250 0.0000 -0.0000 -63.3614 65.4708 -37.5745 -0.0000 -0.0000 0.0000 64.5255 30.8207 18.5746 -95.5891 59.8816 -64.8384 0.0000 -0.0000 -8.2881 -68.2857 48.3104 -61.9295 7.1250 -0.0000 -0.0000 -10.4901 41.0510 -14.9008
0.00 0.00 0.00 152.4620 88.6383 123.2300 0.0000 0.0000 0.0000 -12.5869 -2.2887 -98.1609 15.6700 19.5444 77.2468 2.0041 17.1341 26.4298 4.6105 12.9312 39.1115 0.0000 0.0000 0.0000 14.4778 6.4067 -102.5019 -21.5740 -19.9405 94.6064 0.5929 14.0043 9.2316 -0.6678 5.2258 -14.5538 -5.2860 -1.3405 40.0490 -0.5389 -0.9302 17.1399 2.4456 0.3593 -0.1338 12.0511 11.3197 -6.5256 -9.4389 14.3868 -10.2591 -4.3426 7.1491 -0.4856 0.0000 0.0000 0.0000 -6.6424 -64.8160 42.1190 28.6631 -39.7196 -10.5448 -0.0000 0.0000 -29.3290 -9.1948 46.1136 -6.6542 -7.1250 0.0000 -0.0000 -63.2089 65.4273 -37.3959 0.0000 0.0000 0.0000 55.9234 41.2743 14.5763 -113.3738 57.8315 -80.0949 0.0000 -0.0000 -9.9062 -70.0091 47.6014 -63.7740 7.1250 -0.0000 -0.0000 -11.6669 41.7847 -16.6077
0.00 0.00 0.00 148.3360 88.4290 119.2020 0.0000 0.0000 0.0000 -12.8051 -2.2504 -98.2240 15.6478 19.5397 77.1807 2.0074 17.0996 26.4409 4.6445 12.9719 39.2634 0.0000 0.0000 0.0000 14.4388 6.4259 -102.6154 -21.5877 -19.9395 94.6466 0.5799 13.9215 9.4141 -0.6039 4.9745 -13.8359 -4.6518 -1.2028 40.2770 -0.6808 -0.5056 17.1757 1.8297 0.6436 -0.2120 17.0821 10.4401 1.2095 -15.6714 13.6208 -17.2688 -7.7991 6.9391 -2.9565 -0.0000 0.0000 0.0000 -5.9872 -66.0097 41.8503 28.6716 -39.7272 -10.5502 -0.0000 0.0000 -29.3591 -8.9449 45.9285 -6.4520 -7.1250 0.0000 -0.0000 -62.6700 65.4085 -36.9423 -0.0000 0.0000 0.0000 40.3202 53.8805 4.5335 -130.0476 52.9763 -93.8639 0.0000 -0.0000 -9.5718 -72.8098 47.9352 -67.3778 7.1250 -0.0000 -0.0000 -12.5634 44.0649 -17.9152
0.00 0.00 0.00 137.9290 86.5578 108.8400 0.0000 0.0000 0.0000 -15.0242 -2.7249 -97.8633 15.5700 19.5228 76.9479 2.0194 16.6675 26.4116 4.4651 12.7548 38.4574 0.0000 0.0000 0.0000 13.2132 5.0184 -103.4224 -21.7491 -19.9265 95.1202 0.6798 14.8256 9.2233 -0.5522 4.7601 -13.2256 -5.1226 -0.7191 40.0682 -1.2943 0.0661 17.6213 1.2454 0.9868 0.3425 14.1861 12.8756 -5.4331 -9.8800 16.4832 -8.7241 -4.6046 8.1712 0.2063 0.0000 0.0000 0.0000 -1.7413 -68.3050 38.9762 28.9833 -40.0058 -10.7500 -0.0000 0.0000 -29.8303 -9.2973 46.2105 -6.7399 -7.1250 0.0000 -0.0000 -63.4690 65.4453 -37.6275 0.0000 0.0000 0.0000 5.8524 65.7070 -26.6896 -144.7942 44.9585 -105.0414 0.0000 -0.0000 -15.1188 -81.1188 48.2561 -78.1717 7.1250 -0.0000 -0.0000 -15.7411 50.7109 -22.3489
0.00 0.00 0.00 149.6230 87.7425 121.0580 0.0000 0.0000 0.0000 -14.6218 -2.0566 -98.9567 15.5840 19.5259 76.9897 2.1276 16.2057 26.9356 4.3274 12.5838 37.8297 0.0000 0.0000 0.0000 15.4973 4.9977 -103.9709 -21.6741 -19.9327 94.9001 0.7832 15.5424 7.6884 -0.7742 5.6179 -15.6798 -4.0760 -0.1452 40.7511 -1.5285 1.2977 18.1270 0.0602 1.7532 0.6544 14.5967 12.9605 -4.9580 -10.3263 16.6368 -9.0814 -4.8213 8.2615 0.1200 -0.0000 0.0000 0.0000 5.1625 -69.8183 32.8312 29.6049 -40.5523 -11.1518 -0.0000 0.0000 -30.2954 -9.0971 45.6807 -6.5354 -7.1250 0.0000 -0.0000 -62.3398 65.2345 -36.4558 -0.0000 0.0000 0.0000 -4.4811 62.2912 -22.3378 -116.3689 57.2024 -82.6217 0.0000 -0.0000 -40.2423 -60.7122 41.6983 -49.8629 7.1250 -0.0000 -0.0000 -11.0977 30.4058 -15.3611
0.00 0.00 0.00 155.6340 87.9942 127.1520 0.0000 0.0000 0.0000 -14.2650 -2.0661 -99.1272 15.6061 19.5307 77.0557 2.1654 16.0764 27.1264 4.2837 12.5286 37.6285 0.0000 0.0000 0.0000 15.7457 5.1443 -103.9981 -21.6773 -19.9324 94.9095 0.7795 15.4953 7.5505 -0.8782 5.9742 -16.7095 -3.6112 -0.1502 40.7223 -1.2986 1.4637 18.1183 0.0110 1.8513 0.6369 14.5480 12.5391 -4.7389 -11.2388 16.0583 -9.8478 -5.1714 7.9911 -0.1156 -0.0000 0.0000 0.0000 5.0354 -70.3462 32.9517 29.5618 -40.5148 -11.1238 -0.0000 0.0000 -30.0341 -8.5930 45.6845 -6.1709 -7.1250 0.0000 -0.0000 -61.9421 65.3886 -36.3416 -0.0000 0.0000 0.0000 -5.8378 62.1041 -16.9000 -99.8180 59.6326 -68.4921 0.0000 -0.0000 -36.8241 -55.6346 39.6609 -43.0252 7.1250 -0.0000 -0.0000 -9.6884 25.1427 -13.0159
0.00 0.00 0.00 161.1660 87.9847 132.7070 0.0000 0.0000 0.0000 -14.1503 -2.1983 -99.1351 15.5929 19.5278 77.0164 2.1532 16.2026 27.0817 4.3273 12.5837 37.8295 0.0000 0.0000 0.0000 15.6667 5.1773 -103.9941 -21.6702 -19.9330 94.8886 0.7852 15.5649 7.7339 -0.8048 5.7255 -15.9901 -3.2392 -0.2177 40.7841 -1.1982 1.5415 18.1830 -0.0979 1.9191 0.6840 14.0436 12.2914 -6.6323 -10.8932 15.5342 -8.4004 -4.8606 7.6963 0.4734 -0.0000 0.0000 0.0000 6.0423 -70.7346 32.4235 29.5177 -40.4764 -11.0952 -0.0000 0.0000 -29.6661 -8.7602 45.6177 -6.2847 -7.1250 0.0000 -0.0000 -61.9549 65.3032 -36.2418 -0.0000 0.0000 0.0000 -8.1476 62.2519 -11.5281 -80.3852 59.6478 -51.6832 0.0000 -0.0000 -31.5149 -49.7557 38.2459 -36.1812 7.1250 -0.0000 -0.0000 -7.4580 20.3240 -9.6473
0.00 0.00 0.00 180.9540 88.0486 152.5990 0.0000 0.0000 0.0000 -13.8721 -2.2409 -99.3372 15.5272 19.5134 76.8198 2.2027 16.2516 27.3725 4.3108 12.5628 37.7533 0.0000 0.0000 0.0000 15.9591 5.4981 -103.9728 -21.5598 -19.9416 94.5647 0.7594 15.3761 8.1303 -1.0754 6.5917 -18.5113 -1.5716 -0.2897 41.5892 -0.7055 2.2481 18.6428 -0.6642 2.4346 0.9553 10.4446 10.4701 -11.9503 -9.3250 12.9418 -4.9557 -3.7024 6.3399 1.6760 0.0000 0.0000 0.0000 9.4019 -72.5165 27.5511 29.4366 -40.4056 -11.0426 -0.0000 0.0000 -28.5591 -8.1391 44.8918 -5.7638 -7.1250 0.0000 -0.0000 -60.1480 65.1015 -34.5841 0.0000 0.0000 0.0000 -8.0381 64.5609 2.8716 -50.7593 53.2972 -26.7817 0.0000 -0.0000 -21.7215 -40.7749 43.0260 -30.4747 7.1250 -0.0000 -0.0000 -1.4282 20.9534 -1.8449
0.00 0.00 0.00 188.8190 86.1010 160.9880 0.0000 0.0000 0.0000 -14.6321 -4.6897 -99.1362 15.1812 19.4339 75.7818 3.0090 14.1386 31.4567 3.7231 11.7825 34.9668 0.0000 0.0000 0.0000 15.9960 3.4448 -105.3731 -21.9261 -19.9108 95.6395 0.8251 15.8382 6.0788 -0.9554 6.2243 -17.4367 0.0811 -0.6122 42.6139 -0.6756 2.5227 18.1504 -1.6172 2.7132 0.1474 15.6652 14.0837 -7.0734 -15.4886 18.0657 -1.5271 -5.8238 8.7918 3.5357 -0.0000 -0.0000 0.0000 7.0164 -75.7837 25.5394 29.8297 -40.7469 -11.2983 -0.0000 0.0000 -30.3054 -13.5435 45.8097 -9.7994 -7.1250 0.0000 -0.0000 -66.0764 63.9770 -37.7625 -0.0000 -0.0000 0.0000 -1.7239 62.3859 37.5403 -41.5581 48.9664 -19.6066 0.0000 -0.0000 -11.8041 -4.3817 39.5596 -2.7939 7.1250 -0.0000 -0.0000 15.7714 8.3574 18.5630
0.00 0.00 0.00 190.1070 84.8962 163.0160 0.0000 0.0000 0.0000 -13.0182 -7.2681 -99.4927 15.6209 19.5339 77.1003 2.7941 14.4451 30.3526 4.1088 12.3038 36.8152 0.0000 0.0000 0.0000 13.9590 3.4386 -106.6212 -22.4404 -19.8566 97.1516 0.7977 15.5820 5.9949 -1.3997 7.4842 -21.1580 3.8407 0.9348 40.8738 -1.5879 4.8033 13.2207 -5.5257 3.5021 -4.4984 18.4268 17.7352 -2.3472 -17.3962 24.1677 2.8368 -5.9739 11.8340 5.5955 -0.0000 0.0000 0.0000 -54.4439 -48.1627 23.9994 21.7031 -32.6398 -6.4249 -0.0000 0.0000 -0.9591 15.3558 37.9467 9.5851 -7.1250 0.0000 -0.0000 -26.2038 67.1979 -14.4005 -0.0000 0.0000 0.0000 21.9018 54.8959 59.7444 -34.4263 44.3981 -14.4105 0.0000 -0.0000 -10.2082 -8.0191 42.9051 -5.4785 7.1250 -0.0000 -0.0000 14.2906 12.0445 17.4470
0.00 0.00 0.00 196.7430 82.1657 168.1140 0.0000 0.0000 0.0000 -14.6359 -9.0465 -97.3217 15.2289 19.4453 75.9253 2.8270 15.0054 30.5898 4.1923 12.4120 37.2054 0.0000 0.0000 0.0000 11.7411 1.6255 -105.4986 -22.5248 -19.8465 97.4003 0.8870 16.4275 7.1776 -1.4042 7.4957 -21.1924 3.2527 3.5847 39.8830 0.5615 8.4645 15.3222 -4.0078 5.5222 -1.8377 19.1968 16.2462 -4.6697 -13.7598 21.3799 4.0054 -5.2621 10.4671 5.4700 -0.0000 0.0000 0.0000 -78.0501 -0.6536 -45.4951 7.3863 -12.5533 -0.8135 -0.0000 -0.0000 25.0457 44.0150 38.0812 30.7918 -7.1250 0.0000 -0.0000 19.9924 76.7428 14.9895 -0.0000 0.0000 0.0000 13.7463 45.4065 52.7127 -35.9809 45.5000 -15.5088 0.0000 -0.0000 -11.6719 -10.5364 41.1657 -6.9800 7.1250 -0.0000 -0.0000 12.8462 10.7556 15.3711
0.00 0.00 0.00 201.8800 65.0590 166.2600 0.0000 0.0000 0.0000 -26.5408 -19.0828 -80.6529 11.9824 18.3832 65.9329 3.0268 12.6862 31.4513 2.9302 10.5812 30.8800 0.0000 0.0000 0.0000 -1.0543 -7.9187 -94.2352 -22.1761 -19.8861 96.3741 1.1463 18.7502 10.0884 -1.8559 8.5592 -24.4258 12.3678 5.9970 43.7187 -1.0119 16.8696 14.6041 -12.8770 10.9647 -0.4256 23.2369 19.1228 4.6228 -16.1235 27.6779 4.7261 -6.0722 13.8946 6.1018 0.0000 -0.0000 0.0000 -78.1475 -11.4626 4.7279 23.4685 -34.5972 -7.4026 -0.0000 -0.0000 22.1170 81.5321 48.6831 78.7880 -7.1250 0.0000 -0.0000 154.9460 -66.6872 -166.5540 0.0000 -0.0000 0.0000 26.8140 11.2007 55.6667 -34.5361 44.4780 -14.4874 0.0000 -0.0000 -2.2568 -14.5225 41.9526 -9.8245 7.1250 -0.0000 -0.0000 10.9796 12.2127 13.2715
